<svg id="visual" viewBox="0 0 900 450" width="900" height="450" xmlns="http://www.w3.org/2000/svg" xmlns:xlink="http://www.w3.org/1999/xlink" version="1.1"><rect x="0" y="0" width="900" height="450" fill="#ffffff"></rect><defs><linearGradient id="grad1_0" x1="50%" y1="100%" x2="100%" y2="0%"><stop offset="10%" stop-color="#75b1ef" stop-opacity="1"></stop><stop offset="90%" stop-color="#75b1ef" stop-opacity="1"></stop></linearGradient></defs><defs><linearGradient id="grad1_1" x1="50%" y1="100%" x2="100%" y2="0%"><stop offset="10%" stop-color="#75b1ef" stop-opacity="1"></stop><stop offset="90%" stop-color="#ffffff" stop-opacity="1"></stop></linearGradient></defs><defs><linearGradient id="grad2_0" x1="0%" y1="100%" x2="50%" y2="0%"><stop offset="10%" stop-color="#75b1ef" stop-opacity="1"></stop><stop offset="90%" stop-color="#75b1ef" stop-opacity="1"></stop></linearGradient></defs><defs><linearGradient id="grad2_1" x1="0%" y1="100%" x2="50%" y2="0%"><stop offset="10%" stop-color="#ffffff" stop-opacity="1"></stop><stop offset="90%" stop-color="#75b1ef" stop-opacity="1"></stop></linearGradient></defs><g transform="translate(900, 450)"><path d="M-382.5 0C-346.5 -28.7 -310.5 -57.4 -305.3 -99.2C-300 -141 -325.5 -196 -309.4 -224.8C-293.4 -253.7 -235.8 -256.4 -196.9 -271C-158 -285.7 -137.9 -312.3 -108.2 -332.9C-78.5 -353.4 -39.2 -368 0 -382.5L0 0Z" fill="#bfd7f7"></path><path d="M-191.2 0C-173.3 -14.3 -155.3 -28.7 -152.6 -49.6C-150 -70.5 -162.8 -98 -154.7 -112.4C-146.7 -126.8 -117.9 -128.2 -98.5 -135.5C-79 -142.8 -68.9 -156.1 -54.1 -166.4C-39.2 -176.7 -19.6 -184 0 -191.2L0 0Z" fill="#75b1ef"></path></g><g transform="translate(0, 0)"><path d="M382.5 0C384.9 44 387.4 88 363.8 118.2C340.2 148.4 290.5 164.7 260.5 189.3C230.5 213.9 220.1 246.8 198.7 273.4C177.2 300.1 144.7 320.5 109.7 337.6C74.7 354.8 37.4 368.6 0 382.5L0 0Z" fill="#bfd7f7"></path><path d="M191.3 0C192.5 22 193.7 44 181.9 59.1C170.1 74.2 145.3 82.3 130.3 94.6C115.2 106.9 110.1 123.4 99.3 136.7C88.6 150.1 72.3 160.2 54.9 168.8C37.4 177.4 18.7 184.3 0 191.3L0 0Z" fill="#75b1ef"></path></g></svg>