<svg xmlns="http://www.w3.org/2000/svg" version="1.1" xmlns:xlink="http://www.w3.org/1999/xlink" xmlns:svgjs="http://svgjs.dev/svgjs" viewBox="0 0 2400 800"><defs><linearGradient x1="50%" y1="0%" x2="50%" y2="100%" id="sssurf-grad"><stop stop-color="hsl(208, 77%, 50%)" stop-opacity="1" offset="0%"></stop><stop stop-color="hsl(208, 74%, 93%)" stop-opacity="1" offset="100%"></stop></linearGradient></defs><g fill="url(#sssurf-grad)" transform="matrix(1,0,0,1,7.6488037109375,186.5326862335205)"><path d="M-10,10C54.58333333333333,11.25,172.91666666666666,21.208333333333336,300,16C427.08333333333337,10.791666666666666,475,-15.625,600,-15C725,-14.375,775,18.583333333333332,900,19C1025,19.416666666666668,1075,-18,1200,-13C1325,-8,1375,39.875,1500,43C1625,46.125,1675,1.1666666666666667,1800,2C1925,2.833333333333333,1975,48.875,2100,47C2225,45.125,2285.4166666666665,-80.54166666666667,2400,-7C2514.5833333333335,66.54166666666667,3254.1666666666665,211.04166666666669,2650,400C2045.8333333333335,588.9583333333333,156.25,795.8333333333334,-500,900" transform="matrix(1,0,0,1,0,51)" opacity="0.05"></path><path d="M-10,10C54.58333333333333,11.25,172.91666666666666,21.208333333333336,300,16C427.08333333333337,10.791666666666666,475,-15.625,600,-15C725,-14.375,775,18.583333333333332,900,19C1025,19.416666666666668,1075,-18,1200,-13C1325,-8,1375,39.875,1500,43C1625,46.125,1675,1.1666666666666667,1800,2C1925,2.833333333333333,1975,48.875,2100,47C2225,45.125,2285.4166666666665,-80.54166666666667,2400,-7C2514.5833333333335,66.54166666666667,3254.1666666666665,211.04166666666669,2650,400C2045.8333333333335,588.9583333333333,156.25,795.8333333333334,-500,900" transform="matrix(1,0,0,1,0,102)" opacity="0.24"></path><path d="M-10,10C54.58333333333333,11.25,172.91666666666666,21.208333333333336,300,16C427.08333333333337,10.791666666666666,475,-15.625,600,-15C725,-14.375,775,18.583333333333332,900,19C1025,19.416666666666668,1075,-18,1200,-13C1325,-8,1375,39.875,1500,43C1625,46.125,1675,1.1666666666666667,1800,2C1925,2.833333333333333,1975,48.875,2100,47C2225,45.125,2285.4166666666665,-80.54166666666667,2400,-7C2514.5833333333335,66.54166666666667,3254.1666666666665,211.04166666666669,2650,400C2045.8333333333335,588.9583333333333,156.25,795.8333333333334,-500,900" transform="matrix(1,0,0,1,0,153)" opacity="0.43"></path><path d="M-10,10C54.58333333333333,11.25,172.91666666666666,21.208333333333336,300,16C427.08333333333337,10.791666666666666,475,-15.625,600,-15C725,-14.375,775,18.583333333333332,900,19C1025,19.416666666666668,1075,-18,1200,-13C1325,-8,1375,39.875,1500,43C1625,46.125,1675,1.1666666666666667,1800,2C1925,2.833333333333333,1975,48.875,2100,47C2225,45.125,2285.4166666666665,-80.54166666666667,2400,-7C2514.5833333333335,66.54166666666667,3254.1666666666665,211.04166666666669,2650,400C2045.8333333333335,588.9583333333333,156.25,795.8333333333334,-500,900" transform="matrix(1,0,0,1,0,204)" opacity="0.62"></path><path d="M-10,10C54.58333333333333,11.25,172.91666666666666,21.208333333333336,300,16C427.08333333333337,10.791666666666666,475,-15.625,600,-15C725,-14.375,775,18.583333333333332,900,19C1025,19.416666666666668,1075,-18,1200,-13C1325,-8,1375,39.875,1500,43C1625,46.125,1675,1.1666666666666667,1800,2C1925,2.833333333333333,1975,48.875,2100,47C2225,45.125,2285.4166666666665,-80.54166666666667,2400,-7C2514.5833333333335,66.54166666666667,3254.1666666666665,211.04166666666669,2650,400C2045.8333333333335,588.9583333333333,156.25,795.8333333333334,-500,900" transform="matrix(1,0,0,1,0,255)" opacity="0.81"></path><path d="M-10,10C54.58333333333333,11.25,172.91666666666666,21.208333333333336,300,16C427.08333333333337,10.791666666666666,475,-15.625,600,-15C725,-14.375,775,18.583333333333332,900,19C1025,19.416666666666668,1075,-18,1200,-13C1325,-8,1375,39.875,1500,43C1625,46.125,1675,1.1666666666666667,1800,2C1925,2.833333333333333,1975,48.875,2100,47C2225,45.125,2285.4166666666665,-80.54166666666667,2400,-7C2514.5833333333335,66.54166666666667,3254.1666666666665,211.04166666666669,2650,400C2045.8333333333335,588.9583333333333,156.25,795.8333333333334,-500,900" transform="matrix(1,0,0,1,0,306)" opacity="1.00"></path></g></svg>